<svg width="1918" height="284" viewBox="0 0 1918 284" fill="none" xmlns="http://www.w3.org/2000/svg">
<path d="M586.882 86.7006C585.543 39.8241 545.698 1.98804 497.817 1.98804H422.145C412.769 1.98804 405.068 9.68918 405.068 19.0645V95.7411C405.068 96.0759 405.403 96.4107 405.403 97.0804C409.756 115.496 411.095 134.247 409.756 153.332C409.421 158.69 408.751 163.712 408.082 168.735C407.412 173.422 406.408 178.11 405.403 182.797V280.568C405.403 280.568 430.515 290.279 435.873 276.885V176.77C454.623 176.77 498.486 176.77 499.491 176.77C547.706 176.77 586.882 137.595 586.882 89.0444C586.882 88.3748 586.882 87.3703 586.882 86.7006ZM540.34 128.889C529.626 139.939 514.893 146.301 499.491 146.301C498.486 146.301 454.623 146.301 435.873 146.301V32.4578H497.817C529.291 32.4578 555.408 57.2354 556.077 87.7051C557.082 102.773 551.055 117.84 540.34 128.889Z" fill="white"/>
<path d="M374.256 57.5949C371.912 54.5814 369.233 51.2331 366.554 48.5544V48.8893C369.233 51.9028 371.912 54.9163 374.256 57.9297V57.5949Z" fill="white"/>
<path d="M387.919 81.7403C386.58 78.7268 384.906 76.0482 383.232 73.3695C381.892 71.0257 380.218 68.347 378.544 66.0032C376.87 63.6594 375.531 61.6504 373.856 59.6414V59.9762C371.513 56.9627 368.834 53.9492 366.155 50.9358C363.811 48.2571 361.468 45.9133 358.789 43.2346V88.7718C367.829 104.844 372.517 123.26 372.517 141.675C372.517 199.601 326.645 247.147 268.719 251.5L269.389 252.84L278.094 270.586L282.112 278.622L282.782 279.961C296.845 277.617 310.908 273.264 323.632 266.903C324.971 266.233 325.975 265.563 327.315 265.228C330.328 263.554 333.342 261.88 336.02 260.206L336.69 259.871C353.097 249.491 367.16 235.763 378.209 220.026C379.883 217.682 381.557 215.338 382.897 212.66C384.571 209.981 386.245 206.968 387.584 203.954C395.62 188.552 400.308 171.475 401.647 154.064C403.991 129.287 399.304 104.174 387.919 81.7403Z" fill="white"/>
<path d="M272.074 279.97L258.681 252.849L258.346 252.179L256.337 248.161L253.993 243.139L209.126 150.055V206.977L223.858 236.442L226.872 242.469L228.211 245.482C228.211 245.817 228.546 246.152 228.546 246.487L229.551 248.496L231.225 251.844L245.288 280.64V280.975C245.288 280.975 245.288 281.309 245.623 281.309C246.627 281.309 247.632 281.644 248.301 281.644H271.405C271.74 281.644 272.074 281.644 272.074 281.309V279.97Z" fill="white"/>
<path d="M154.609 33.1484L146.573 16.7416L138.872 1.0045C138.872 0.669665 138.537 0.669666 138.537 0.334834C138.202 1.27229e-06 138.202 0 137.867 0H137.532H137.198C136.863 0 136.528 0.334834 136.528 0.334834C136.528 0.334834 136.193 0.669665 136.193 1.0045L0.251124 277.911C-0.0837081 278.246 -0.0837081 278.581 0.251124 279.25C0.585957 279.585 0.920748 279.92 1.25558 279.92H21.0107C24.6938 279.92 28.0421 277.911 29.3815 274.563L44.1141 244.093C44.1141 244.093 44.1141 243.758 44.4489 243.758L121.795 86.0519C123.135 82.3688 124.809 78.6856 126.483 75.0024C126.818 74.6676 126.818 73.9979 127.153 73.6631C127.822 71.989 128.827 70.3148 129.496 68.9755C129.831 68.3058 130.166 67.971 130.166 67.3013C130.166 66.9665 130.501 66.9665 130.501 66.6316C131.171 65.2923 131.84 63.953 132.845 62.6136C133.179 62.2788 133.18 61.6091 133.514 61.2743C134.519 59.6002 135.188 58.2608 136.193 56.9215L166.998 118.531V58.2608L154.609 33.1484Z" fill="white"/>
<path d="M359.866 176.11C354.509 189.168 346.807 201.222 336.763 211.267C334.754 213.276 332.745 214.95 330.736 216.959V217.294C343.459 206.245 353.504 192.182 359.866 176.11Z" fill="white"/>
<path d="M329.727 273.903V279.26C329.727 279.595 330.062 279.93 330.397 279.93H354.17C356.849 279.93 358.858 277.921 358.858 275.242V254.817C350.152 262.518 340.442 268.88 329.727 273.903Z" fill="white"/>
<path d="M357.183 1.00586H331.401C330.397 1.00586 329.727 1.67552 329.727 2.68002V216.973C331.736 215.298 333.745 213.29 335.754 211.615C345.799 201.905 353.835 189.851 358.857 176.793V2.68002C359.192 1.67552 358.188 1.00586 357.183 1.00586Z" fill="white"/>
<path d="M256.659 2.72778H177.303C175.629 2.72778 173.955 4.06711 173.955 5.74127V273.942C173.955 277.625 176.968 280.304 180.317 280.304H193.375H234.894L220.831 251.843H203.085V31.5234C203.085 31.5234 256.993 31.1885 259.672 31.1885C284.784 31.1885 309.562 39.5593 329.317 54.9616V21.8132C307.218 9.0896 282.106 2.72778 256.659 2.72778Z" fill="white"/>
<path d="M802.885 111.067H787.43L780.458 91.4281H753.382L746.41 111.067H730.955L759.89 29.7238H773.95L802.885 111.067ZM775.345 77.0188L766.862 53.197L758.495 77.0188H775.345Z" fill="white"/>
<path d="M845.794 112.693C834.251 112.693 824.723 108.82 817.208 101.073C809.771 93.2486 806.053 82.9839 806.053 70.279C806.053 57.6515 809.81 47.4643 817.324 39.7173C824.839 31.9704 834.6 28.0969 846.608 28.0969C850.714 28.0969 855.091 28.5617 859.739 29.4914C864.387 30.3435 868.144 31.4668 871.011 32.8613L869.384 47.0382C861.792 43.9394 854.316 42.39 846.956 42.39C838.822 42.39 832.663 44.9465 828.48 50.0595C824.374 55.095 822.321 61.7573 822.321 70.0466C822.321 78.6457 824.49 85.5404 828.829 90.7309C833.167 95.8438 839.442 98.4003 847.654 98.4003C850.985 98.4003 854.703 97.9742 858.809 97.1221V82.5966H849.861V70.279H873.683V106.535C870.739 108.239 866.517 109.711 861.017 110.95C855.517 112.112 850.442 112.693 845.794 112.693Z" fill="white"/>
<path d="M941.321 111.067H888.1V29.7238H940.159V44.1331H903.323V61.4475H931.909V75.8568H903.323V96.6573H941.321V111.067Z" fill="white"/>
<path d="M1018.41 111.067H1006.2L969.02 55.2887V111.067H954.145V29.7238H968.787L1003.53 82.248V29.7238H1018.41V111.067Z" fill="white"/>
<path d="M1071.52 112.693C1059.74 112.693 1050.09 108.82 1042.58 101.073C1035.14 93.2486 1031.42 83.0227 1031.42 70.3952C1031.42 57.7677 1035.14 47.5805 1042.58 39.8335C1050.09 32.0091 1059.74 28.0969 1071.52 28.0969C1080.42 28.0969 1088.13 29.685 1094.64 32.8613L1093.01 47.0382C1085.19 43.9394 1078.02 42.39 1071.52 42.39C1063.85 42.39 1057.96 44.9465 1053.85 50.0595C1049.75 55.1725 1047.69 61.951 1047.69 70.3952C1047.69 78.8393 1049.75 85.6179 1053.85 90.7309C1057.96 95.8438 1063.85 98.4003 1071.52 98.4003C1078.02 98.4003 1085.19 96.8509 1093.01 93.7522L1094.64 107.929C1088.13 111.105 1080.42 112.693 1071.52 112.693Z" fill="white"/>
<path d="M1121.99 111.067H1107.12V29.7238H1121.99V111.067Z" fill="white"/>
<path d="M1203.24 111.067H1187.79L1180.82 91.4281H1153.74L1146.77 111.067H1131.31L1160.25 29.7238H1174.31L1203.24 111.067ZM1175.7 77.0188L1167.22 53.197L1158.85 77.0188H1175.7Z" fill="white"/>
<path d="M1269.09 111.067H1238.64V29.7238H1269.09C1280.94 29.7238 1290.58 33.3648 1298.02 40.647C1305.46 47.9291 1309.18 57.8451 1309.18 70.3952C1309.18 82.9452 1305.46 92.8613 1298.02 100.143C1290.58 107.426 1280.94 111.067 1269.09 111.067ZM1269.09 44.0169H1253.52V96.7735H1269.09C1276.83 96.7735 1282.72 94.4494 1286.75 89.8012C1290.86 85.1531 1292.91 78.6844 1292.91 70.3952C1292.91 62.106 1290.86 55.6373 1286.75 50.9891C1282.72 46.341 1276.83 44.0169 1269.09 44.0169Z" fill="white"/>
<path d="M1337.15 111.067H1322.28V29.7238H1337.15V111.067Z" fill="white"/>
<path d="M1389.93 112.693C1378.39 112.693 1368.86 108.82 1361.35 101.073C1353.91 93.2486 1350.19 82.9839 1350.19 70.279C1350.19 57.6515 1353.95 47.4643 1361.46 39.7173C1368.98 31.9704 1378.74 28.0969 1390.75 28.0969C1394.85 28.0969 1399.23 28.5617 1403.88 29.4914C1408.53 30.3435 1412.28 31.4668 1415.15 32.8613L1413.52 47.0382C1405.93 43.9394 1398.45 42.39 1391.1 42.39C1382.96 42.39 1376.8 44.9465 1372.62 50.0595C1368.51 55.095 1366.46 61.7573 1366.46 70.0466C1366.46 78.6457 1368.63 85.5404 1372.97 90.7309C1377.31 95.8438 1383.58 98.4003 1391.79 98.4003C1395.12 98.4003 1398.84 97.9742 1402.95 97.1221V82.5966H1394V70.279H1417.82V106.535C1414.88 108.239 1410.66 109.711 1405.16 110.95C1399.66 112.112 1394.58 112.693 1389.93 112.693Z" fill="white"/>
<path d="M1447.11 111.067H1432.24V29.7238H1447.11V111.067Z" fill="white"/>
<path d="M1518.72 44.1331H1495.71V111.067H1480.84V44.1331H1457.83V29.7238H1518.72V44.1331Z" fill="white"/>
<path d="M1586.58 111.067H1571.13L1564.15 91.4281H1537.08L1530.11 111.067H1514.65L1543.59 29.7238H1557.65L1586.58 111.067ZM1559.04 77.0188L1550.56 53.197L1542.19 77.0188H1559.04Z" fill="white"/>
<path d="M1644.22 111.067H1595.88V29.7238H1610.75V96.6573H1644.22V111.067Z" fill="white"/>
<path d="M1710.53 111.067H1680.08V29.7238H1710.53C1722.38 29.7238 1732.02 33.3648 1739.46 40.647C1746.9 47.9291 1750.62 57.8451 1750.62 70.3952C1750.62 82.9452 1746.9 92.8613 1739.46 100.143C1732.02 107.426 1722.38 111.067 1710.53 111.067ZM1710.53 44.0169H1694.95V96.7735H1710.53C1718.27 96.7735 1724.16 94.4494 1728.19 89.8012C1732.29 85.1531 1734.35 78.6844 1734.35 70.3952C1734.35 62.106 1732.29 55.6373 1728.19 50.9891C1724.16 46.341 1718.27 44.0169 1710.53 44.0169Z" fill="white"/>
<path d="M1816.94 111.067H1763.71V29.7238H1815.77V44.1331H1778.94V61.4475H1807.52V75.8568H1778.94V96.6573H1816.94V111.067Z" fill="white"/>
<path d="M754.428 252.067H739.554V170.724H754.428V252.067Z" fill="white"/>
<path d="M836.611 252.067H824.409L787.224 196.289V252.067H772.35V170.724H786.991L821.736 223.248V170.724H836.611V252.067Z" fill="white"/>
<path d="M918.77 252.067H906.569L869.384 196.289V252.067H854.51V170.724H869.151L903.896 223.248V170.724H918.77V252.067Z" fill="white"/>
<path d="M1000.7 242.073C993.261 249.82 983.655 253.693 971.879 253.693C960.104 253.693 950.459 249.82 942.944 242.073C935.507 234.249 931.789 224.023 931.789 211.395C931.789 198.768 935.507 188.58 942.944 180.834C950.459 173.009 960.104 169.097 971.879 169.097C983.655 169.097 993.261 173.009 1000.7 180.834C1008.21 188.58 1011.97 198.768 1011.97 211.395C1011.97 224.023 1008.21 234.249 1000.7 242.073ZM989.542 191.059C985.436 185.947 979.549 183.39 971.879 183.39C964.21 183.39 958.322 185.947 954.216 191.059C950.11 196.172 948.057 202.951 948.057 211.395C948.057 219.839 950.11 226.618 954.216 231.731C958.322 236.844 964.21 239.4 971.879 239.4C979.549 239.4 985.436 236.844 989.542 231.731C993.648 226.618 995.701 219.839 995.701 211.395C995.701 202.951 993.648 196.172 989.542 191.059Z" fill="white"/>
<path d="M1090.87 170.724L1062.29 252.067H1044.16L1014.87 170.724H1030.33L1053.11 232.428L1075.53 170.724H1090.87Z" fill="white"/>
<path d="M1158.42 252.067H1142.96L1135.99 232.428H1108.92L1101.94 252.067H1086.49L1115.42 170.724H1129.48L1158.42 252.067ZM1130.88 218.019L1122.4 194.197L1114.03 218.019H1130.88Z" fill="white"/>
<path d="M1201.68 253.693C1189.9 253.693 1180.26 249.82 1172.74 242.073C1165.31 234.249 1161.59 224.023 1161.59 211.395C1161.59 198.768 1165.31 188.58 1172.74 180.834C1180.26 173.009 1189.9 169.097 1201.68 169.097C1210.59 169.097 1218.29 170.685 1224.8 173.861L1223.17 188.038C1215.35 184.939 1208.18 183.39 1201.68 183.39C1194.01 183.39 1188.12 185.947 1184.01 191.059C1179.91 196.172 1177.86 202.951 1177.86 211.395C1177.86 219.839 1179.91 226.618 1184.01 231.731C1188.12 236.844 1194.01 239.4 1201.68 239.4C1208.18 239.4 1215.35 237.851 1223.17 234.752L1224.8 248.929C1218.29 252.105 1210.59 253.693 1201.68 253.693Z" fill="white"/>
<path d="M1252.15 252.067H1237.28V170.724H1252.15V252.067Z" fill="white"/>
<path d="M1334.1 242.073C1326.67 249.82 1317.06 253.693 1305.28 253.693C1293.51 253.693 1283.86 249.82 1276.35 242.073C1268.91 234.249 1265.19 224.023 1265.19 211.395C1265.19 198.768 1268.91 188.58 1276.35 180.834C1283.86 173.009 1293.51 169.097 1305.28 169.097C1317.06 169.097 1326.67 173.009 1334.1 180.834C1341.62 188.58 1345.38 198.768 1345.38 211.395C1345.38 224.023 1341.62 234.249 1334.1 242.073ZM1322.95 191.059C1318.84 185.947 1312.95 183.39 1305.28 183.39C1297.62 183.39 1291.73 185.947 1287.62 191.059C1283.52 196.172 1281.46 202.951 1281.46 211.395C1281.46 219.839 1283.52 226.618 1287.62 231.731C1291.73 236.844 1297.62 239.4 1305.28 239.4C1312.95 239.4 1318.84 236.844 1322.95 231.731C1327.05 226.618 1329.11 219.839 1329.11 211.395C1329.11 202.951 1327.05 196.172 1322.95 191.059ZM1316.09 153.758L1294.36 160.846V152.247L1316.09 141.673V153.758Z" fill="white"/>
<path d="M1422.62 252.067H1410.42L1373.24 196.289V252.067H1358.36V170.724H1373L1407.75 223.248V170.724H1422.62V252.067Z" fill="white"/>
<path d="M1496.02 225.34H1481.5V252.067H1466.62V170.724H1489.63C1495.75 170.724 1500.75 171.034 1504.62 171.653C1508.57 172.273 1512.14 173.474 1515.31 175.256C1518.57 177.038 1520.89 179.671 1522.28 183.158C1523.76 186.566 1524.49 191.021 1524.49 196.521C1524.49 202.021 1523.56 206.786 1521.7 210.814C1519.92 214.765 1517.52 217.748 1514.5 219.762C1511.48 221.776 1508.46 223.209 1505.44 224.061C1502.41 224.914 1499.28 225.34 1496.02 225.34ZM1493.7 183.158H1481.5V211.395H1494.05C1499.55 211.395 1503.46 210.311 1505.78 208.141C1508.19 205.895 1509.39 202.06 1509.39 196.637C1509.39 191.834 1508.26 188.387 1506.02 186.295C1503.85 184.203 1499.74 183.158 1493.7 183.158Z" fill="white"/>
<path d="M1593.83 244.048C1588.18 250.478 1579.77 253.693 1568.62 253.693C1557.46 253.693 1549.05 250.478 1543.4 244.048C1537.74 237.541 1534.92 228.593 1534.92 217.205V170.724H1549.79V212.209C1549.79 220.808 1551.11 227.509 1553.74 232.312C1556.45 237.038 1561.41 239.4 1568.62 239.4C1575.82 239.4 1580.74 237.038 1583.37 232.312C1586.09 227.509 1587.44 220.808 1587.44 212.209V170.724H1602.31V217.205C1602.31 228.593 1599.49 237.541 1593.83 244.048ZM1579.42 153.758L1557.69 160.846V152.247L1579.42 141.673V153.758Z" fill="white"/>
<path d="M1650.63 252.067H1619.25V170.724H1641.22C1645.32 170.724 1648.81 170.879 1651.68 171.189C1654.62 171.498 1657.45 172.079 1660.16 172.932C1662.95 173.784 1665.15 174.985 1666.78 176.534C1668.49 178.006 1669.84 180.02 1670.85 182.577C1671.86 185.056 1672.36 188.077 1672.36 191.64C1672.36 199.155 1670.07 204.81 1665.5 208.606C1670.31 210.466 1673.87 212.945 1676.19 216.043C1678.52 219.065 1679.68 223.093 1679.68 228.129C1679.68 232.622 1678.83 236.495 1677.12 239.749C1675.42 243.003 1673.1 245.482 1670.15 247.186C1667.29 248.89 1664.23 250.13 1660.97 250.905C1657.8 251.679 1654.35 252.067 1650.63 252.067ZM1647.26 183.39H1634.13V203.377H1648.65C1651.29 203.377 1653.57 202.68 1655.51 201.285C1657.52 199.814 1658.53 197.334 1658.53 193.848C1658.53 189.897 1657.56 187.186 1655.63 185.714C1653.77 184.165 1650.98 183.39 1647.26 183.39ZM1649.58 215.114H1634.13V239.4H1648.77C1653.81 239.4 1657.64 238.471 1660.27 236.611C1662.99 234.752 1664.34 231.653 1664.34 227.315C1664.34 219.181 1659.42 215.114 1649.58 215.114Z" fill="white"/>
<path d="M1740.34 252.067H1692V170.724H1706.87V237.657H1740.34V252.067Z" fill="white"/>
<path d="M1764.97 252.067H1750.1V170.724H1764.97V252.067Z" fill="white"/>
<path d="M1818.1 253.693C1806.33 253.693 1796.68 249.82 1789.17 242.073C1781.73 234.249 1778.01 224.023 1778.01 211.395C1778.01 198.768 1781.73 188.58 1789.17 180.834C1796.68 173.009 1806.33 169.097 1818.1 169.097C1827.01 169.097 1834.72 170.685 1841.23 173.861L1839.6 188.038C1831.78 184.939 1824.61 183.39 1818.1 183.39C1810.43 183.39 1804.55 185.947 1800.44 191.059C1796.33 196.172 1794.28 202.951 1794.28 211.395C1794.28 219.839 1796.33 226.618 1800.44 231.731C1804.55 236.844 1810.43 239.4 1818.1 239.4C1824.61 239.4 1831.78 237.851 1839.6 234.752L1841.23 248.929C1834.72 252.105 1827.01 253.693 1818.1 253.693Z" fill="white"/>
<path d="M1917.04 252.067H1901.58L1894.61 232.428H1867.53L1860.56 252.067H1845.11L1874.04 170.724H1888.1L1917.04 252.067ZM1889.5 218.019L1881.01 194.197L1872.65 218.019H1889.5Z" fill="white"/>
</svg>
